<svg width="22" height="22" viewBox="0 0 22 22" fill="none" xmlns="http://www.w3.org/2000/svg">
<path d="M20.33 21.6668C8.95451 21.6829 0.321187 12.9462 0.333356 1.67018C0.333356 0.933796 0.93031 0.333496 1.66669 0.333496H5.18583C5.8466 0.333496 6.40792 0.819002 6.50495 1.4726C6.73749 3.03909 7.19357 4.56412 7.85932 6.0011L7.99634 6.29684C8.18685 6.70804 8.05772 7.19662 7.68891 7.45999C6.59908 8.23828 6.18257 9.8049 7.03161 11.0273C8.09705 12.5613 9.44008 13.904 10.9737 14.969C12.196 15.8178 13.7624 15.4013 14.5407 14.3117C14.8042 13.9427 15.2931 13.8135 15.7045 14.0041L15.9989 14.1405C17.436 14.8062 18.9611 15.2623 20.5278 15.4948C21.1814 15.5918 21.6667 16.1531 21.6667 16.8138V20.3335C21.6667 21.0699 21.0683 21.6668 20.3319 21.6668L20.33 21.6668Z" fill="#0E6683"/>
</svg>
