<svg width="12" height="16" viewBox="0 0 12 16" fill="none" xmlns="http://www.w3.org/2000/svg">
<path d="M5.99984 15.5C4.94728 14.6022 3.97166 13.618 3.08317 12.5575C1.74984 10.965 0.166505 8.59338 0.166505 6.33338C0.165323 3.973 1.58671 1.84453 3.76739 0.941206C5.94808 0.0378789 8.45823 0.537742 10.1265 2.20754C11.2236 3.29972 11.8381 4.78537 11.8332 6.33338C11.8332 8.59338 10.2498 10.965 8.9165 12.5575C8.02802 13.618 7.05239 14.6022 5.99984 15.5ZM5.99984 3.83338C5.10667 3.83338 4.28136 4.30987 3.83478 5.08338C3.38819 5.85688 3.38819 6.80987 3.83478 7.58338C4.28136 8.35688 5.10667 8.83338 5.99984 8.83338C7.38055 8.83338 8.49984 7.71409 8.49984 6.33338C8.49984 4.95266 7.38055 3.83338 5.99984 3.83338Z" fill="#1A7897"/>
</svg>
