<svg width="20" height="20" viewBox="0 0 20 20" fill="none" xmlns="http://www.w3.org/2000/svg">
<path d="M6.94461 0.833374V4.50004H5.41683V3.03337H0.833496V16.2334H2.36127V16.9667C2.36127 18.173 3.39634 19.1667 4.65294 19.1667C5.90954 19.1667 6.94461 18.173 6.94461 16.9667V16.2334H19.1668V4.50004H16.1113V0.833374H6.94461ZM8.47238 2.30004H14.5835V5.96671H8.47238V2.30004ZM2.36127 4.50004H3.88905V14.7667H2.36127V4.50004ZM5.41683 5.96671H6.94461V7.43337H16.1113V5.96671H17.639V14.7667H5.41683V5.96671ZM7.7085 8.90004V10.3667H9.23627V8.90004H7.7085ZM10.7641 8.90004V10.3667H12.2918V8.90004H10.7641ZM13.8196 8.90004V10.3667H15.3474V8.90004H13.8196ZM7.7085 11.8334V13.3H9.23627V11.8334H7.7085ZM10.7641 11.8334V13.3H12.2918V11.8334H10.7641ZM13.8196 11.8334V13.3H15.3474V11.8334H13.8196ZM3.88905 16.2334H5.41683V16.9667C5.41683 17.3737 5.0769 17.7 4.65294 17.7C4.22898 17.7 3.88905 17.3737 3.88905 16.9667V16.2334Z" fill="#1A7897"/>
</svg>
