<svg width="14" height="14" viewBox="0 0 14 14" fill="none" xmlns="http://www.w3.org/2000/svg">
<path d="M12.8313 13.6667C5.7216 13.6768 0.325776 8.21629 0.333382 1.1688C0.333382 0.708562 0.706478 0.333374 1.16672 0.333374H3.36618C3.77916 0.333374 4.12998 0.636815 4.19062 1.04531C4.33597 2.02437 4.62102 2.97751 5.03711 3.87563L5.12275 4.06046C5.24182 4.31746 5.16111 4.62282 4.9306 4.78743C4.24946 5.27387 3.98914 6.253 4.51979 7.017C5.18569 7.97574 6.02508 8.81496 6.9836 9.48056C7.74756 10.0111 8.72654 9.75077 9.21296 9.06975C9.37768 8.83912 9.68321 8.75837 9.94037 8.8775L10.1244 8.96273C11.0225 9.37879 11.9757 9.66385 12.9549 9.80917C13.3634 9.8698 13.6667 10.2206 13.6667 10.6336V12.8334C13.6667 13.2936 13.2927 13.6667 12.8325 13.6667L12.8313 13.6667Z" fill="#0E6683"/>
</svg>
