<svg width="18.33" height="13.33" viewBox="0 0 24 18" fill="none" xmlns="http://www.w3.org/2000/svg">
<path d="M14 7V4M17.5 1.842C15.976 1.337 14.146 1 12 1C9.855 1 8.024 1.337 6.5 1.842H17.5ZM17.5 1.842C20.521 2.842 22.335 4.502 23 5.5L20.5 8L17.5 6V1.842ZM6.5 1.842C3.479 2.842 1.665 4.502 1 5.5L3.5 8L6.5 6V1.842ZM10 4V7V4ZM10 7L4.586 12.414C4.2109 12.789 4.00011 13.2976 4 13.828V15C4 15.5304 4.21071 16.0391 4.58579 16.4142C4.96086 16.7893 5.46957 17 6 17H18C18.5304 17 19.0391 16.7893 19.4142 16.4142C19.7893 16.0391 20 15.5304 20 15V13.828C19.9999 13.2976 19.7891 12.789 19.414 12.414L14 7H10ZM10 7H14H10Z " stroke="#0E6683" stroke-width="2" stroke-linecap="round" stroke-linejoin="round"/>
</svg>
