<svg width="18" height="18" viewBox="0 0 18 18" fill="none" xmlns="http://www.w3.org/2000/svg">
<path d="M8.99984 17.3333C4.39746 17.3333 0.666504 13.6023 0.666504 8.99996C0.666504 4.39759 4.39746 0.666626 8.99984 0.666626C13.6022 0.666626 17.3332 4.39759 17.3332 8.99996C17.3281 13.6002 13.6001 17.3282 8.99984 17.3333ZM8.99984 2.33329C5.31794 2.33329 2.33317 5.31806 2.33317 8.99996C2.33317 12.6819 5.31794 15.6666 8.99984 15.6666C12.6817 15.6666 15.6665 12.6819 15.6665 8.99996C15.6624 5.31977 12.68 2.33743 8.99984 2.33329ZM13.1665 9.83329H8.1665V4.83329H9.83317V8.16663H13.1665V9.83329Z" fill="#0E6683"/>
</svg>
