<svg width="18" height="18" viewBox="0 0 18 18" fill="none" xmlns="http://www.w3.org/2000/svg">
<path d="M9.00004 17.3333C7.74009 17.3369 6.49606 17.0518 5.36338 16.5C4.94883 16.2983 4.55165 16.0628 4.17588 15.7958L4.06171 15.7125C3.02822 14.9496 2.18327 13.9602 1.59171 12.82C0.979822 11.6399 0.662465 10.3293 0.666667 8.99996C0.666667 4.39759 4.39767 0.666626 9.00004 0.666626C13.6024 0.666626 17.3334 4.39759 17.3334 8.99996C17.3376 10.3286 17.0205 11.6386 16.4092 12.8183C15.8185 13.9578 14.9747 14.947 13.9425 15.71C13.5532 15.995 13.14 16.2459 12.7075 16.46L12.6409 16.4933C11.5075 17.0481 10.2619 17.3354 9.00004 17.3333ZM9.00004 13.1666C7.75127 13.1642 6.60643 13.8616 6.03588 14.9725C7.9037 15.8976 10.0964 15.8976 11.9642 14.9725V14.9683C11.3929 13.8587 10.2481 13.1628 9.00004 13.1666ZM9.00004 11.5C10.8051 11.5023 12.4696 12.4751 13.3575 14.0466L13.37 14.0358L13.3817 14.0258L13.3675 14.0383L13.3592 14.045C15.4667 12.2242 16.2203 9.28524 15.2489 6.67505C14.2775 4.06486 11.786 2.33356 9.00088 2.33356C6.2158 2.33356 3.7242 4.06486 2.75284 6.67505C1.78147 9.28524 2.53504 12.2242 4.64254 14.045C5.53109 12.4742 7.19534 11.5021 9.00004 11.5ZM9.00004 10.6666C7.15909 10.6666 5.66671 9.17424 5.66671 7.33329C5.66671 5.49234 7.15909 3.99996 9.00004 3.99996C10.841 3.99996 12.3334 5.49234 12.3334 7.33329C12.3334 8.21735 11.9822 9.06519 11.3571 9.69032C10.7319 10.3154 9.8841 10.6666 9.00004 10.6666ZM9.00004 5.66663C8.07957 5.66663 7.33338 6.41282 7.33338 7.33329C7.33338 8.25377 8.07957 8.99996 9.00004 8.99996C9.92052 8.99996 10.6667 8.25377 10.6667 7.33329C10.6667 6.41282 9.92052 5.66663 9.00004 5.66663Z" fill="#0E6683"/>
</svg>
