<svg width="16" height="16" viewBox="0 0 16 16" fill="none" xmlns="http://www.w3.org/2000/svg">
<path d="M8 5.39658C6.56641 5.39658 5.39649 6.5665 5.39649 8.00009C5.39649 9.43368 6.56641 10.6036 8 10.6036C9.43359 10.6036 10.6035 9.43368 10.6035 8.00009C10.6035 6.5665 9.43359 5.39658 8 5.39658ZM15.8086 8.00009C15.8086 6.92197 15.8184 5.85361 15.7578 4.77744C15.6973 3.52744 15.4121 2.41806 14.498 1.504C13.582 0.587983 12.4746 0.30478 11.2246 0.244233C10.1465 0.183686 9.07812 0.193452 8.00195 0.193452C6.92383 0.193452 5.85547 0.183686 4.7793 0.244233C3.5293 0.30478 2.41992 0.589936 1.50586 1.504C0.589845 2.42001 0.306642 3.52744 0.246095 4.77744C0.185548 5.85556 0.195314 6.92392 0.195314 8.00009C0.195314 9.07626 0.185548 10.1466 0.246095 11.2227C0.306642 12.4727 0.591798 13.5821 1.50586 14.4962C2.42188 15.4122 3.5293 15.6954 4.7793 15.7559C5.85742 15.8165 6.92578 15.8067 8.00195 15.8067C9.08008 15.8067 10.1484 15.8165 11.2246 15.7559C12.4746 15.6954 13.584 15.4102 14.498 14.4962C15.4141 13.5802 15.6973 12.4727 15.7578 11.2227C15.8203 10.1466 15.8086 9.07822 15.8086 8.00009ZM8 12.0059C5.7832 12.0059 3.99414 10.2169 3.99414 8.00009C3.99414 5.78329 5.7832 3.99423 8 3.99423C10.2168 3.99423 12.0059 5.78329 12.0059 8.00009C12.0059 10.2169 10.2168 12.0059 8 12.0059ZM12.1699 4.76572C11.6523 4.76572 11.2344 4.34775 11.2344 3.83017C11.2344 3.31259 11.6523 2.89462 12.1699 2.89462C12.6875 2.89462 13.1055 3.31259 13.1055 3.83017C13.1056 3.95307 13.0815 4.0748 13.0346 4.18837C12.9876 4.30195 12.9187 4.40514 12.8318 4.49205C12.7449 4.57895 12.6417 4.64786 12.5281 4.69482C12.4145 4.74178 12.2928 4.76587 12.1699 4.76572Z" fill="white"/>
</svg>
