<svg width="20" height="20" viewBox="0 0 20 20" fill="none" xmlns="http://www.w3.org/2000/svg">
<path d="M10 17.5002C8.94745 16.6024 7.97183 15.6181 7.08334 14.5577C5.75001 12.9652 4.16667 10.5935 4.16667 8.3335C4.16549 5.97312 5.58688 3.84466 7.76756 2.94133C9.94825 2.038 12.4584 2.53786 14.1267 4.20766C15.2237 5.29984 15.8383 6.78549 15.8334 8.3335C15.8334 10.5935 14.25 12.9652 12.9167 14.5577C12.0282 15.6181 11.0526 16.6024 10 17.5002ZM10 5.8335C9.10684 5.8335 8.28152 6.30999 7.83494 7.0835C7.38836 7.857 7.38836 8.81 7.83494 9.5835C8.28152 10.357 9.10684 10.8335 10 10.8335C11.3807 10.8335 12.5 9.71421 12.5 8.3335C12.5 6.95279 11.3807 5.8335 10 5.8335Z" fill="white"/>
</svg>
