<svg width="20" height="20" viewBox="0 0 20 20" fill="none" xmlns="http://www.w3.org/2000/svg">
<path d="M15.8312 16.6668C8.72155 16.6769 3.32573 11.2164 3.33334 4.16892C3.33334 3.70868 3.70643 3.3335 4.16667 3.3335H6.36613C6.77911 3.3335 7.12994 3.63694 7.19058 4.04544C7.33592 5.02449 7.62097 5.97764 8.03707 6.87575L8.1227 7.06058C8.24177 7.31759 8.16106 7.62295 7.93056 7.78756C7.24941 8.27399 6.9891 9.25312 7.51974 10.0171C8.18564 10.9759 9.02504 11.8151 9.98355 12.4807C10.7475 13.0112 11.7265 12.7509 12.2129 12.0699C12.3776 11.8392 12.6832 11.7585 12.9403 11.8776L13.1243 11.9628C14.0225 12.3789 14.9757 12.664 15.9549 12.8093C16.3634 12.8699 16.6667 13.2207 16.6667 13.6337V15.8335C16.6667 16.2937 16.2927 16.6668 15.8324 16.6668L15.8312 16.6668Z" fill="white"/>
</svg>
